<svg xmlns="http://www.w3.org/2000/svg" width="34.482" height="46.022" viewBox="0 0 34.482 46.022"><defs><style>.a{fill:#fff212;}</style></defs><path class="a" d="M32.3,17.56,6.6,28.7a2.6,2.6,0,0,1-2.224-.292A2.989,2.989,0,0,1,3,26.545,3.055,3.055,0,0,1,3.3,24.231a2.953,2.953,0,0,1,1.775-1.46L30.77,11.63a2.8,2.8,0,0,1,2.246.315,3.022,3.022,0,0,1,1.37,1.865,2.967,2.967,0,0,1-.292,2.336,2.867,2.867,0,0,1-1.8,1.415ZM29.421,8.935,3.723,20.077A2.6,2.6,0,0,1,1.5,19.785,2.989,2.989,0,0,1,.128,17.92,3.055,3.055,0,0,1,.42,15.606,2.787,2.787,0,0,1,2.2,14.191L27.894,3a2.8,2.8,0,0,1,2.246.315,3.022,3.022,0,0,1,1.37,1.865,2.966,2.966,0,0,1-.292,2.336,2.867,2.867,0,0,1-1.8,1.415ZM13.607,6.059,6.6,8.576a2.648,2.648,0,0,1-2.224-.27A2.915,2.915,0,0,1,3,6.441,3.1,3.1,0,0,1,3.3,4.1,2.791,2.791,0,0,1,5.071,2.689L12.124.128a2.774,2.774,0,0,1,2.224.315,2.915,2.915,0,0,1,1.37,1.865,3.1,3.1,0,0,1-.292,2.336,2.8,2.8,0,0,1-1.82,1.415Zm-.944,23.048a2.728,2.728,0,0,1,1.034-.585l14.2-5.392a2.8,2.8,0,0,1,2.246.315,3.022,3.022,0,0,1,1.37,1.865,2.966,2.966,0,0,1-.292,2.336,2.867,2.867,0,0,1-1.8,1.415l-12.13,4.627q-.045.585-.045.853h2.876a2.743,2.743,0,0,1,2.044.853A2.825,2.825,0,0,1,23,37.439a2.749,2.749,0,0,1-.831,2.021,2.79,2.79,0,0,1-2.044.833H14.371a3.27,3.27,0,0,1-.539-.045,5.658,5.658,0,0,1-3.707-1.865,5.668,5.668,0,0,1,2.538-9.277Zm4.582,16.938a9.117,9.117,0,0,1-4.066-.831q-1.686-.831-1.683-2.045H23q0,1.213-1.685,2.044a9.109,9.109,0,0,1-4.065.831Z" transform="translate(-0.021 -0.023)"/></svg>