<svg xmlns="http://www.w3.org/2000/svg" width="50.319" height="39.714" viewBox="0 0 50.319 39.714"><defs><style>.a{fill:#fff212;}</style></defs><path class="a" d="M25.046,29.785l3.271-3.271L24.03,22.226,20.758,25.5v1.58h2.708v2.708h1.58ZM37.456,9.477a.583.583,0,0,0-.931.028l-9.872,9.872a.64.64,0,1,0,.9.9l9.872-9.872a.582.582,0,0,0,.028-.931Zm2.256,16.754V31.59a8.14,8.14,0,0,1-8.122,8.124H8.124a7.821,7.821,0,0,1-5.74-2.384A7.831,7.831,0,0,1,0,31.59V8.124a7.821,7.821,0,0,1,2.384-5.74A7.831,7.831,0,0,1,8.124,0H31.59a7.755,7.755,0,0,1,3.3.7.859.859,0,0,1,.508.649.88.88,0,0,1-.254.819L33.762,3.554a.826.826,0,0,1-.9.226,5,5,0,0,0-1.269-.17H8.124A4.345,4.345,0,0,0,4.937,4.935,4.345,4.345,0,0,0,3.611,8.122V31.589a4.345,4.345,0,0,0,1.325,3.187A4.345,4.345,0,0,0,8.124,36.1H31.59A4.525,4.525,0,0,0,36.1,31.589V28.037a.844.844,0,0,1,.254-.621l1.806-1.806a.848.848,0,0,1,.987-.2.817.817,0,0,1,.564.819ZM37,5.415l8.124,8.124L26.174,32.493H18.051V24.37ZM49.528,9.139l-2.595,2.595L38.81,3.61,41.4,1.015a2.722,2.722,0,0,1,3.836,0L49.528,5.3a2.611,2.611,0,0,1,.79,1.918,2.611,2.611,0,0,1-.79,1.918Z"/></svg>